<svg width="857" height="1315" viewBox="0 0 857 1315" fill="none" xmlns="http://www.w3.org/2000/svg">
<path d="M-10.045 1.80093C117.099 23.6074 243.425 42.2354 362.207 95.5164C454.618 136.968 535.942 200.499 601.913 276.937C640.002 321.069 662.984 367.122 680.128 422.532C703.065 496.667 722.952 571.684 746.322 645.709C756.489 677.915 767.499 709.618 774.634 742.667C785.307 792.099 795.869 841.162 810.064 889.765C818.247 917.782 828.123 945.279 840.591 971.697C844.664 980.327 848.102 988.276 855.459 993.999" stroke="#9046CA" stroke-width="3" stroke-linecap="round"/>
<path d="M-94 87C33.1437 108.806 159.47 127.434 278.252 180.715C370.663 222.167 451.987 285.698 517.958 362.136C556.047 406.268 579.029 452.321 596.173 507.731C619.11 581.866 638.997 656.883 662.367 730.908C672.534 763.114 683.544 794.817 690.679 827.866C701.352 877.298 711.914 926.361 726.109 974.964C734.292 1002.98 744.168 1030.48 756.636 1056.9C760.709 1065.53 764.147 1073.48 771.504 1079.2" stroke="#9046CA" stroke-width="3" stroke-linecap="round"/>
<path d="M-273 214C-145.856 235.806 -19.5304 254.434 99.252 307.715C191.663 349.167 272.987 412.698 338.958 489.136C377.047 533.268 400.029 579.321 417.173 634.731C440.11 708.866 459.997 783.883 483.367 857.908C493.534 890.114 504.544 921.817 511.679 954.866C522.352 1004.3 532.914 1053.36 547.109 1101.96C555.292 1129.98 565.168 1157.48 577.636 1183.9C581.709 1192.53 585.147 1200.48 592.504 1206.2" stroke="#9046CA" stroke-width="3" stroke-linecap="round"/>
<path d="M-443 321C-315.856 342.806 -189.53 361.434 -70.748 414.715C21.6627 456.167 102.987 519.698 168.958 596.136C207.047 640.268 230.029 686.321 247.173 741.731C270.11 815.866 289.997 890.883 313.367 964.908C323.534 997.114 334.544 1028.82 341.679 1061.87C352.352 1111.3 362.914 1160.36 377.109 1208.96C385.292 1236.98 395.168 1264.48 407.636 1290.9C411.709 1299.53 415.147 1307.48 422.504 1313.2" stroke="#9046CA" stroke-width="3" stroke-linecap="round"/>
</svg>
